<svg id="Layer_1" data-name="Layer 1" xmlns="http://www.w3.org/2000/svg" viewBox="0 0 25.27 25"><defs><style>.cls-1{fill:#797979;}</style></defs><path id="Icon_awesome-expand-arrows-alt" data-name="Icon awesome-expand-arrows-alt" class="cls-1" d="M19.47,15.17v3.4a.72.72,0,0,1-.72.72H15.34a.72.72,0,0,1-.72-.73.71.71,0,0,1,.21-.51l1.1-1.1L12.68,13.7,9.43,17l1.1,1.09a.73.73,0,0,1,0,1,.69.69,0,0,1-.51.21H6.61a.72.72,0,0,1-.72-.72h0v-3.4a.73.73,0,0,1,.73-.72.75.75,0,0,1,.51.22l1.1,1.1,3.25-3.26L8.23,9.24l-1.1,1.1a.73.73,0,0,1-1,0,.71.71,0,0,1-.21-.51V6.43a.71.71,0,0,1,.72-.72H10a.73.73,0,0,1,.73.73.75.75,0,0,1-.21.51l-1.1,1.1,3.25,3.25L15.93,8,14.83,7a.73.73,0,0,1,.52-1.24h3.4a.73.73,0,0,1,.73.72h0v3.4a.73.73,0,0,1-.73.73.72.72,0,0,1-.52-.21l-1.1-1.1L13.88,12.5l3.25,3.26,1.1-1.1a.72.72,0,0,1,1,0A.74.74,0,0,1,19.47,15.17Z"/></svg>