<svg id="Layer_1" data-name="Layer 1" xmlns="http://www.w3.org/2000/svg" viewBox="0 0 25.27 25"><defs><style>.cls-1{fill:#797979;}</style></defs><path id="Icon_awesome-bed" data-name="Icon awesome-bed" class="cls-1" d="M8.48,12.5a2.33,2.33,0,1,0-2.32-2.33A2.33,2.33,0,0,0,8.48,12.5ZM18.74,8.77H12.22a.47.47,0,0,0-.47.47v4.2H5.22V7.37a.47.47,0,0,0-.46-.47H3.82a.46.46,0,0,0-.46.47h0V17.63a.46.46,0,0,0,.46.47h.94a.47.47,0,0,0,.46-.47v-1.4H20.14v1.4a.47.47,0,0,0,.47.47h.93a.47.47,0,0,0,.47-.47V12a3.27,3.27,0,0,0-3.27-3.26Z"/></svg>