<svg id="Layer_1" data-name="Layer 1" xmlns="http://www.w3.org/2000/svg" viewBox="0 0 92.56 26"><defs><style>.cls-1{fill:#fff;}.cls-2{fill:none;stroke:#ff5000;}.cls-3,.cls-4{isolation:isolate;}.cls-4{font-size:11px;fill:#ff5000;font-family:Montserrat-Bold, Montserrat;font-weight:700;}.cls-5{letter-spacing:-0.01em;}.cls-6{letter-spacing:0em;}</style></defs><g id="Group_6" data-name="Group 6"><g id="Rectangle_8" data-name="Rectangle 8"><path class="cls-1" d="M13.39,0h66a13,13,0,0,1,13,13h0a13,13,0,0,1-13,13h-66a13,13,0,0,1-13-13h0A13,13,0,0,1,13.39,0Z"/><path class="cls-2" d="M13.39.5h66A12.5,12.5,0,0,1,91.89,13h0a12.5,12.5,0,0,1-12.5,12.5h-66A12.5,12.5,0,0,1,.89,13h0A12.5,12.5,0,0,1,13.39.5Z"/></g><g id="Más_info" data-name="Más info" class="cls-3"><text class="cls-4" transform="translate(22.12 17)">Más in<tspan class="cls-5" x="37.16" y="0">f</tspan><tspan class="cls-6" x="41.34" y="0">o</tspan></text></g></g></svg>