<svg id="Layer_1" data-name="Layer 1" xmlns="http://www.w3.org/2000/svg" viewBox="0 0 25.27 25"><defs><style>.cls-1{fill:#797979;}</style></defs><path id="Icon_awesome-toilet" data-name="Icon awesome-toilet" class="cls-1" d="M17.39,6.93a.43.43,0,0,0,.43-.43V6.07a.42.42,0,0,0-.43-.42H8a.42.42,0,0,0-.43.42V6.5A.43.43,0,0,0,8,6.93H8.4v4.2c-.54.27-.86.59-.86.94a5.13,5.13,0,0,0,2.32,4.3l-.57,1.88a.86.86,0,0,0,.57,1.07,1.07,1.07,0,0,0,.25,0h5.14a.85.85,0,0,0,.86-.85.69.69,0,0,0,0-.25l-.57-1.88a5.14,5.14,0,0,0,2.32-4.3c0-.35-.31-.68-.85-1V6.92Zm-7.71.64a.22.22,0,0,1,.22-.21h1.28a.22.22,0,0,1,.22.21V8a.22.22,0,0,1-.22.22H9.9A.22.22,0,0,1,9.68,8Zm3,5.36c-2.06,0-3.74-.38-3.74-.86s1.68-.85,3.74-.85,3.74.38,3.74.85-1.67.86-3.74.86Z"/></svg>